<svg width="0" height="0" class="hidden">
  <symbol fill="none" xmlns="http://www.w3.org/2000/svg" viewBox="0 0 20 20" id="login">
    <path d="M12.5 2.5H13.5C14.9001 2.5 15.6002 2.5 16.135 2.77248C16.6054 3.01217 16.9878 3.39462 17.2275 3.86502C17.5 4.3998 17.5 5.09987 17.5 6.5V13.5C17.5 14.9001 17.5 15.6002 17.2275 16.135C16.9878 16.6054 16.6054 16.9878 16.135 17.2275C15.6002 17.5 14.9001 17.5 13.5 17.5H12.5" stroke="#F0AA8D" stroke-width="2" stroke-linecap="round" stroke-linejoin="round"></path>
    <path d="M8.33333 5.83337L12.5 10M12.5 10L8.33333 14.1667M12.5 10L2.5 10" stroke="#F0AA8D" stroke-width="2" stroke-linecap="round" stroke-linejoin="round"></path>
  </symbol>
  <symbol fill="none" xmlns="http://www.w3.org/2000/svg" viewBox="0 0 32 32" id="x">
    <path d="M24 8L8 24" stroke="#121417" stroke-width="2.5" stroke-linecap="round" stroke-linejoin="round"></path>
    <path d="M8 8L24 24" stroke="#121417" stroke-width="2.5" stroke-linecap="round" stroke-linejoin="round"></path>
  </symbol>
  <symbol fill="none" xmlns="http://www.w3.org/2000/svg" viewBox="0 0 20 20" id="eye-off">
    <g clip-path="url(#clip0_4_621)">
      <path d="M14.9499 14.9499C13.5254 16.0358 11.7908 16.6373 9.99992 16.6666C4.16659 16.6666 0.833252 9.99994 0.833252 9.99994C1.86983 8.06819 3.30753 6.38045 5.04992 5.04994M8.24992 3.53327C8.82353 3.39901 9.41081 3.33189 9.99992 3.33327C15.8333 3.33327 19.1666 9.99994 19.1666 9.99994C18.6607 10.9463 18.0575 11.8372 17.3666 12.6583M11.7666 11.7666C11.5377 12.0122 11.2617 12.2092 10.955 12.3459C10.6484 12.4825 10.3173 12.556 9.98166 12.5619C9.64599 12.5678 9.31256 12.5061 9.00126 12.3803C8.68997 12.2546 8.40719 12.0675 8.16979 11.8301C7.9324 11.5927 7.74525 11.3099 7.61951 10.9986C7.49377 10.6873 7.43202 10.3539 7.43795 10.0182C7.44387 9.68252 7.51734 9.35148 7.65398 9.04481C7.79062 8.73815 7.98763 8.46215 8.23325 8.23327" stroke="#121417" stroke-width="2" stroke-linecap="round" stroke-linejoin="round"></path>
      <path d="M0.833252 0.833374L19.1666 19.1667" stroke="#121417" stroke-width="2" stroke-linecap="round" stroke-linejoin="round"></path>
    </g>
    <defs>
      <clipPath id="clip0_4_621">
        <rect width="20" height="20" fill="white"></rect>
      </clipPath>
    </defs>
  </symbol>
  <svg width="0" height="0" class="hidden">
  <symbol fill="none" xmlns="http://www.w3.org/2000/svg" viewBox="0 0 24 24" id="eye-on">
    <path d="M15.0007 12C15.0007 13.6569 13.6576 15 12.0007 15C10.3439 15 9.00073 13.6569 9.00073 12C9.00073 10.3431 10.3439 9 12.0007 9C13.6576 9 15.0007 10.3431 15.0007 12Z" stroke="#000000" stroke-width="2" stroke-linecap="round" stroke-linejoin="round"></path>
    <path d="M12.0012 5C7.52354 5 3.73326 7.94288 2.45898 12C3.73324 16.0571 7.52354 19 12.0012 19C16.4788 19 20.2691 16.0571 21.5434 12C20.2691 7.94291 16.4788 5 12.0012 5Z" stroke="#000000" stroke-width="2" stroke-linecap="round" stroke-linejoin="round"></path>
  </symbol>
</svg>
</svg>